<svg xmlns="http://www.w3.org/2000/svg" xmlns:xlink="http://www.w3.org/1999/xlink" viewBox="0 0 253 116"><defs><style>.cls-1{fill:#fdf9ea;}.cls-2{fill:url(#linear-gradient);}.cls-3{font-size:36.32px;fill:#595958;font-family:ArialRoundedMTBold, Arial Rounded MT Bold;letter-spacing:-0.05em;}</style><linearGradient id="linear-gradient" x1="133.03" y1="2.52" x2="135.17" y2="141.33" gradientUnits="userSpaceOnUse"><stop offset="0" stop-color="#fff"/><stop offset="0.79" stop-color="#fdf0f0"/></linearGradient></defs><title>Asset 1</title><g id="Layer_2" data-name="Layer 2"><g id="Layer_1-2" data-name="Layer 1"><path class="cls-1" d="M78,107.73A60.59,60.59,0,0,1,58.26,111C26.09,111,0,86.15,0,55.5S26.09,0,58.26,0A61,61,0,0,1,68.89.92C46.42,8.62,30.36,29.1,30.36,53.15,30.36,80.35,50.89,103,78,107.73Z"/><path class="cls-2" d="M253,66c0,11.6-10.3,21-23,21a24.52,24.52,0,0,1-11.46-2.79C212.75,93.05,201.92,99,189.5,99a35.63,35.63,0,0,1-24.67-9.54c-1.69,14.9-16,26.54-33.33,26.54-11.52,0-21.68-5.12-27.71-12.92a48.59,48.59,0,0,1-9.41.92A47.69,47.69,0,0,1,62.25,91.68,38.59,38.59,0,0,1,49,94C30.22,94,15,80.79,15,64.5S30.22,35,49,35a36.82,36.82,0,0,1,3.81.19,47.87,47.87,0,0,1,78-7.46A33,33,0,0,1,194,40.27a34.9,34.9,0,0,1,20.86,9.94A24.13,24.13,0,0,1,230,45C242.7,45,253,54.4,253,66Z"/><text class="cls-3" transform="translate(37.33 59.44)">Airy Dreams</text></g></g></svg>